<svg width="251" height="285" viewBox="0 0 251 285" fill="none" xmlns="http://www.w3.org/2000/svg">
<path d="M144 0L172.5 49L173.5 51.5L174.5 54L175.5 57.5L176.5 61L177 65L177.5 69V72V75.5L177 80L176 83.5L175 86.5L173.5 90L96 228.5L88.2949 223.73C86.4369 222.58 84.4624 221.629 82.4044 220.894L78.5196 219.507C73.9056 217.859 68.9668 217.328 64.108 217.958L56.2745 218.974C48.4801 219.984 40.9103 222.295 33.8804 225.81C29.6377 227.931 25.6207 230.477 21.8908 233.407L13.5 240L0 253.5L24 214L25.5 211.5L27 209.5L30 206L32.5 203.5L35 201.5L38 199.5L41 197.5L44.5 196L48.5 194.5L53.5 193L59 192L65 191.5H71H77L81.5 192L85.5 192.5L146.5 86L148.5 82.5L150 79L151 76L151.5 73L152 70V67L151.5 65L150.5 62.5L149.5 60.5L148 58L146.5 56L145.5 55L144 54L71.5 181.5L66.5 182L62.5 182.5L59 183L56 183.5L52.5 184.5L49 185.5L46 186.5L43 187.5L40.5 188.5L38 190L36 191.5L34 193L144 0Z" fill="#311B92"/>
<path d="M101 233.5L114 210.5L128 221L141.5 233.5L152 243L157.109 247.716C158.035 248.571 159.027 249.351 160.075 250.05L164.5 253L168.086 254.931C170.016 255.97 172.1 256.696 174.258 257.082C180.69 258.23 187.144 255.183 190.343 249.486L205.5 222.5H140L123 208.5L129.5 196L251 196.5L200 285H174.905C170.334 285 165.797 284.229 161.483 282.719C159.169 281.909 156.96 280.827 154.902 279.495L149.5 276L139 267L126.5 255.5L111.5 242L101 233.5Z" fill="#311B92"/>
<path d="M0 258H33.7806C43.8127 258 53.0782 252.633 58.0694 243.93L69.5 224C77.6592 225.305 85.2675 228.941 91.4094 234.468L92 235L72.7972 269.649C70.3134 274.13 66.6475 277.844 62.1988 280.386L60.5338 281.338C56.9074 283.41 52.8031 284.5 48.6265 284.5H14.5L0 258Z" fill="#311B92"/>
</svg>
